<svg width="25" height="25" viewBox="0 0 25 25" fill="none" xmlns="http://www.w3.org/2000/svg">
<path d="M12.583 3.63965L12.7148 3.6582L12.8438 3.69629C13.1245 3.80353 13.2779 4.0287 13.3516 4.19336C13.4282 4.36474 13.4561 4.54706 13.4707 4.68262C13.5006 4.96089 13.5 5.34536 13.5 5.77051V9.9502H14.6201C15.2994 9.9502 15.8945 9.94783 16.3516 10.0156C16.792 10.0809 17.2742 10.2335 17.5977 10.667L17.6602 10.7578L17.7158 10.8525C17.9731 11.328 17.9089 11.8298 17.7832 12.2568C17.7179 12.4784 17.6227 12.7241 17.5078 12.9912L17.1152 13.8555L14.3848 19.7549C14.2062 20.1405 14.0454 20.4896 13.9014 20.7295C13.8312 20.8464 13.7294 21.0007 13.5879 21.124C13.4518 21.2426 13.2172 21.3812 12.917 21.3604L12.7852 21.3418C12.4217 21.2617 12.2326 20.9949 12.1484 20.8066C12.0718 20.6353 12.0439 20.4529 12.0293 20.3174C11.9994 20.0391 12 19.6546 12 19.2295V15.0498H10.8799C10.2006 15.0498 9.60552 15.0522 9.14844 14.9844C8.70801 14.9191 8.22576 14.7665 7.90234 14.333L7.83984 14.2422C7.51855 13.7391 7.58269 13.1986 7.7168 12.7432C7.84733 12.3 8.09946 11.7608 8.38477 11.1445L11.1152 5.24512L11.3701 4.70312C11.4505 4.53769 11.5266 4.39048 11.5986 4.27051C11.6688 4.15363 11.7706 3.99932 11.9121 3.87598C12.0482 3.75738 12.2828 3.61879 12.583 3.63965Z" stroke="#444444" stroke-width="1.5"/>
</svg>
