<svg width="25" height="24" viewBox="0 0 25 24" fill="none" xmlns="http://www.w3.org/2000/svg">
<path d="M11.1813 5.15751C11.5911 4.48699 11.796 4.15173 12.052 4.02348C12.3339 3.88217 12.6661 3.88217 12.948 4.02348C13.204 4.15173 13.4089 4.48699 13.8187 5.1575L15.3334 7.63574C16.3568 9.31005 17.1578 11.1105 17.7163 12.9916V12.9916C18.6063 15.9898 16.3599 19 13.2324 19H11.7676C8.64006 19 6.39365 15.9898 7.28374 12.9916V12.9916C7.8422 11.1105 8.64321 9.31005 9.66657 7.63574L11.1813 5.15751Z" stroke="#444444" stroke-width="1.5"/>
<path d="M9.89844 11.4387V11.1191C9.89844 10.8895 9.94824 10.6806 10.0479 10.4924C10.1475 10.3043 10.2941 10.1535 10.4878 10.04C10.6815 9.9266 10.9194 9.86987 11.2017 9.86987C11.4922 9.86987 11.7343 9.9266 11.928 10.04C12.1244 10.1535 12.2711 10.3043 12.3679 10.4924C12.4675 10.6806 12.5173 10.8895 12.5173 11.1191V11.4387C12.5173 11.6628 12.4675 11.869 12.3679 12.0571C12.2711 12.2453 12.1258 12.3961 11.9321 12.5095C11.7384 12.623 11.4977 12.6797 11.21 12.6797C10.925 12.6797 10.6842 12.623 10.4878 12.5095C10.2941 12.3961 10.1475 12.2453 10.0479 12.0571C9.94824 11.869 9.89844 11.6628 9.89844 11.4387ZM10.6912 11.1191V11.4387C10.6912 11.5356 10.7091 11.6283 10.7451 11.7168C10.7839 11.8026 10.842 11.8731 10.9194 11.9285C10.9997 11.981 11.0965 12.0073 11.21 12.0073C11.3289 12.0073 11.4258 11.981 11.5005 11.9285C11.5752 11.8731 11.6305 11.8026 11.6665 11.7168C11.7025 11.6283 11.7205 11.5356 11.7205 11.4387V11.1191C11.7205 11.0168 11.7011 10.9227 11.6624 10.8369C11.6264 10.7484 11.5697 10.6778 11.4922 10.6252C11.4175 10.5699 11.3206 10.5422 11.2017 10.5422C11.091 10.5422 10.9969 10.5699 10.9194 10.6252C10.842 10.6778 10.7839 10.7484 10.7451 10.8369C10.7091 10.9227 10.6912 11.0168 10.6912 11.1191ZM12.7871 14.8379V14.5183C12.7871 14.2914 12.8369 14.0839 12.9365 13.8958C13.0389 13.7076 13.1869 13.5568 13.3806 13.4434C13.5771 13.3299 13.8178 13.2732 14.1028 13.2732C14.3905 13.2732 14.6313 13.3299 14.825 13.4434C15.0186 13.5568 15.1653 13.7076 15.2649 13.8958C15.3645 14.0839 15.4143 14.2914 15.4143 14.5183V14.8379C15.4143 15.0648 15.3645 15.2723 15.2649 15.4604C15.1681 15.6486 15.0228 15.7994 14.8291 15.9128C14.6354 16.0263 14.3961 16.083 14.1111 16.083C13.8233 16.083 13.5812 16.0263 13.3848 15.9128C13.1883 15.7994 13.0389 15.6486 12.9365 15.4604C12.8369 15.2723 12.7871 15.0648 12.7871 14.8379ZM13.584 14.5183V14.8379C13.584 14.9375 13.6061 15.0316 13.6504 15.1201C13.6947 15.2087 13.7555 15.2792 13.833 15.3318C13.9132 15.3844 14.0059 15.4106 14.1111 15.4106C14.2439 15.4106 14.3477 15.3844 14.4224 15.3318C14.4971 15.2792 14.5483 15.2087 14.5759 15.1201C14.6064 15.0316 14.6216 14.9375 14.6216 14.8379V14.5183C14.6216 14.4187 14.6022 14.326 14.5635 14.2402C14.5247 14.1517 14.4666 14.0811 14.3892 14.0286C14.3145 13.9732 14.219 13.9456 14.1028 13.9456C13.9866 13.9456 13.8897 13.9732 13.8123 14.0286C13.7375 14.0811 13.6808 14.1517 13.6421 14.2402C13.6034 14.326 13.584 14.4187 13.584 14.5183ZM14.3975 10.8203L11.4465 15.5435L10.8655 15.2363L13.8164 10.5132L14.3975 10.8203Z" fill="#444444"/>
</svg>
