<svg width="32" height="33" viewBox="0 0 32 33" fill="none" xmlns="http://www.w3.org/2000/svg">
<path d="M8.59712 11.1259C9.01625 7.35376 12.2047 4.5 16 4.5V4.5C19.7953 4.5 22.9838 7.35376 23.4029 11.1259L23.7386 14.1475C23.8068 14.7616 23.841 15.0686 23.8978 15.3691C24.0354 16.0959 24.2731 16.8 24.6041 17.4614C24.741 17.7349 24.8999 17.9998 25.2178 18.5297L26.1826 20.1377C26.9884 21.4806 27.3912 22.1521 27.104 22.6594C26.8168 23.1667 26.0337 23.1667 24.4676 23.1667H7.53238C5.96627 23.1667 5.18322 23.1667 4.89599 22.6594C4.60876 22.1521 5.01164 21.4806 5.81739 20.1377L6.78221 18.5297C7.10009 17.9998 7.25904 17.7349 7.39591 17.4614C7.72691 16.8 7.96459 16.0959 8.10216 15.3691C8.15904 15.0686 8.19316 14.7616 8.26139 14.1475L8.59712 11.1259Z" stroke="#FFFFFF" stroke-width="1.5"/>
<path d="M12.1363 24.0529C12.3642 25.3287 12.8664 26.4561 13.565 27.2601C14.2635 28.0642 15.1195 28.5 16 28.5C16.8805 28.5 17.7365 28.0642 18.435 27.2601C19.1336 26.4561 19.6358 25.3287 19.8637 24.0529" stroke="#F4F4F4" stroke-width="1.5" stroke-linecap="round"/>
</svg>
