<svg width="24" height="24" viewBox="0 0 24 24" fill="none" xmlns="http://www.w3.org/2000/svg">
<g clip-path="url(#clip0_448_270)">
<path d="M6.27051 13.7256H8.15039C8.10026 14.391 7.91569 14.9811 7.59668 15.4961C7.27767 16.0065 6.83333 16.4076 6.26367 16.6992C5.69401 16.9909 5.00358 17.1367 4.19238 17.1367C3.56803 17.1367 3.00521 17.0273 2.50391 16.8086C2.00716 16.5853 1.58105 16.2686 1.22559 15.8584C0.874674 15.4437 0.605794 14.9469 0.418945 14.3682C0.232096 13.7848 0.138672 13.1309 0.138672 12.4062V11.6475C0.138672 10.9229 0.234375 10.2689 0.425781 9.68555C0.617188 9.10221 0.890625 8.60547 1.24609 8.19531C1.60612 7.7806 2.03678 7.46159 2.53809 7.23828C3.04395 7.01497 3.60905 6.90332 4.2334 6.90332C5.0446 6.90332 5.73047 7.05371 6.29102 7.35449C6.85156 7.65072 7.28678 8.05859 7.59668 8.57812C7.90658 9.09766 8.09342 9.69466 8.15723 10.3691H6.27734C6.24089 9.94987 6.14974 9.5944 6.00391 9.30273C5.86263 9.01107 5.64844 8.79004 5.36133 8.63965C5.07878 8.4847 4.7028 8.40723 4.2334 8.40723C3.86882 8.40723 3.54753 8.47559 3.26953 8.6123C2.99609 8.74902 2.76823 8.9541 2.58594 9.22754C2.40365 9.49642 2.26693 9.83366 2.17578 10.2393C2.08464 10.6403 2.03906 11.1051 2.03906 11.6338V12.4062C2.03906 12.9121 2.08008 13.3656 2.16211 13.7666C2.24414 14.1676 2.37174 14.5072 2.54492 14.7852C2.7181 15.0632 2.94141 15.2751 3.21484 15.4209C3.48828 15.5667 3.81413 15.6396 4.19238 15.6396C4.65267 15.6396 5.02637 15.5667 5.31348 15.4209C5.60514 15.2751 5.82617 15.0609 5.97656 14.7783C6.13151 14.4958 6.22949 14.1449 6.27051 13.7256ZM17.666 11.7705V12.2832C17.666 13.0352 17.5658 13.7119 17.3652 14.3135C17.1647 14.9105 16.8799 15.4186 16.5107 15.8379C16.1416 16.2572 15.7018 16.5785 15.1914 16.8018C14.681 17.0251 14.1136 17.1367 13.4893 17.1367C12.874 17.1367 12.3089 17.0251 11.7939 16.8018C11.2835 16.5785 10.8415 16.2572 10.4678 15.8379C10.0941 15.4186 9.80469 14.9105 9.59961 14.3135C9.39453 13.7119 9.29199 13.0352 9.29199 12.2832V11.7705C9.29199 11.014 9.39453 10.3372 9.59961 9.74023C9.80469 9.14323 10.0918 8.63509 10.4609 8.21582C10.8301 7.79199 11.2699 7.46842 11.7803 7.24512C12.2952 7.02181 12.8604 6.91016 13.4756 6.91016C14.0999 6.91016 14.6673 7.02181 15.1777 7.24512C15.6882 7.46842 16.1279 7.79199 16.4971 8.21582C16.8708 8.63509 17.1579 9.14323 17.3584 9.74023C17.5635 10.3372 17.666 11.014 17.666 11.7705ZM15.7656 12.2832V11.7568C15.7656 11.2145 15.7155 10.7383 15.6152 10.3281C15.515 9.91341 15.3669 9.56478 15.1709 9.28223C14.9749 8.99967 14.7334 8.78776 14.4463 8.64648C14.1592 8.50065 13.8356 8.42773 13.4756 8.42773C13.111 8.42773 12.7874 8.50065 12.5049 8.64648C12.2269 8.78776 11.9899 8.99967 11.7939 9.28223C11.598 9.56478 11.4476 9.91341 11.3428 10.3281C11.2425 10.7383 11.1924 11.2145 11.1924 11.7568V12.2832C11.1924 12.821 11.2425 13.2972 11.3428 13.7119C11.4476 14.1266 11.598 14.4775 11.7939 14.7646C11.9945 15.0472 12.236 15.2614 12.5186 15.4072C12.8011 15.5531 13.1247 15.626 13.4893 15.626C13.8538 15.626 14.1774 15.5531 14.46 15.4072C14.7425 15.2614 14.9795 15.0472 15.1709 14.7646C15.3669 14.4775 15.515 14.1266 15.6152 13.7119C15.7155 13.2972 15.7656 12.821 15.7656 12.2832ZM23.0254 18.4355V19.4814H18.835V18.6064L20.7969 16.8154C20.9746 16.6514 21.1159 16.4987 21.2207 16.3574C21.3301 16.2161 21.4098 16.0885 21.46 15.9746C21.5146 15.8607 21.542 15.765 21.542 15.6875C21.542 15.5007 21.4827 15.3503 21.3643 15.2363C21.2458 15.1178 21.0703 15.0586 20.8379 15.0586C20.5645 15.0586 20.3617 15.1383 20.2295 15.2979C20.0973 15.4528 20.0312 15.6396 20.0312 15.8584H18.7119C18.7119 15.5212 18.7939 15.2135 18.958 14.9355C19.1266 14.653 19.3659 14.4274 19.6758 14.2588C19.9857 14.0902 20.3548 14.0059 20.7832 14.0059C21.2253 14.0059 21.599 14.0742 21.9043 14.2109C22.2142 14.3431 22.4512 14.5345 22.6152 14.7852C22.7793 15.0312 22.8613 15.3298 22.8613 15.6807C22.8613 15.9359 22.8066 16.1706 22.6973 16.3848C22.5879 16.599 22.4261 16.8109 22.2119 17.0205C21.9977 17.2301 21.7311 17.4626 21.4121 17.7178L20.5508 18.4355H23.0254Z" fill="#444444"/>
</g>
<defs>
<clipPath id="clip0_448_270">
<rect width="24" height="24" fill="white"/>
</clipPath>
</defs>
</svg>
