<svg width="32" height="32" viewBox="0 0 32 32" fill="none" xmlns="http://www.w3.org/2000/svg">
<path d="M17.3046 9.10303L14.6954 6.53333C14.524 6.36431 14.3204 6.2302 14.0964 6.13869C13.8723 6.04718 13.6321 6.00005 13.3895 6H6.76923C6.03479 6 5.33042 6.28734 4.81109 6.7988C4.29176 7.31026 4 8.00396 4 8.72727V23.2727C4 23.996 4.29176 24.6897 4.81109 25.2012C5.33042 25.7127 6.03479 26 6.76923 26H25.2308C25.9652 26 26.6696 25.7127 27.1889 25.2012C27.7082 24.6897 28 23.996 28 23.2727V12.3636C28 11.6403 27.7082 10.9466 27.1889 10.4352C26.6696 9.9237 25.9652 9.63636 25.2308 9.63636H18.6105C18.121 9.63594 17.6505 9.4441 17.3046 9.10303Z" stroke="#FFFFFF" stroke-width="1.5" stroke-linecap="round" stroke-linejoin="round"/>
</svg>
