<svg width="24" height="24" viewBox="0 0 24 24" fill="none" xmlns="http://www.w3.org/2000/svg">
<path d="M7.5 4.5C10.2639 4.50006 12.199 5.49634 13.4199 6.92578C13.7628 7.32724 14.0389 7.75267 14.2598 8.18262C13.8087 8.41445 13.3846 8.69157 12.9961 9.01074C12.3057 7.5596 10.8093 6.13982 7.93457 6.00977L7.5 6C2.75625 6 1.5 9.35284 1.5 11.1338L1.50781 11.3594C1.58411 12.3961 2.18488 13.1511 3.00781 13.2471L3.1875 13.2568C3.29055 13.2568 3.40323 13.2576 3.51562 13.248C4.13432 13.2195 4.85654 13.1333 5.55957 13.0381C5.57803 13.0381 5.58784 13.0378 5.60645 13.0283C5.54082 13.4283 5.40976 14.0764 5.16602 15.0859C4.93168 16.0287 5.00627 16.7624 5.39062 17.248C5.72705 17.6812 6.30774 17.9324 7.11328 17.9883L7.47168 18H7.5C8.43158 18 9.1083 17.7742 9.50586 17.3379L9.58105 17.248C9.90905 16.8231 10.0081 16.2081 9.87695 15.4297L9.80664 15.0859C9.5629 14.086 9.43086 13.4286 9.36523 13.0381C9.38399 13.0382 9.41297 13.0479 9.43164 13.0479C9.79676 13.0967 10.167 13.1442 10.5244 13.1826C10.4443 13.6096 10.4004 14.0497 10.4004 14.5C10.4004 15.6119 10.6567 16.6637 11.1123 17.6006C11.053 17.727 10.9851 17.8512 10.9062 17.9717L10.7686 18.1641L10.7666 18.167C9.96767 19.1964 8.69175 19.5 7.5 19.5H7.47168C6.28419 19.5 5.01432 19.1982 4.21484 18.1777V18.1787C3.41095 17.1629 3.42819 15.8648 3.70605 14.7373C3.66545 14.7396 3.625 14.7442 3.58496 14.7461L3.58398 14.7451C3.42068 14.7562 3.27169 14.7568 3.1875 14.7568C1.08152 14.7568 0.000190981 12.8514 0 11.1338C0 9.94362 0.406735 8.29712 1.58105 6.92383C2.80191 5.49622 4.73615 4.5 7.5 4.5Z" fill="#FFFFFF"/>
<path d="M15.6667 14.9583L17.0417 16.3333L19.3333 13.125M23 14.5C23 15.2223 22.8577 15.9375 22.5813 16.6048C22.3049 17.272 21.8998 17.8784 21.3891 18.3891C20.8784 18.8998 20.272 19.3049 19.6048 19.5813C18.9375 19.8577 18.2223 20 17.5 20C16.7777 20 16.0625 19.8577 15.3952 19.5813C14.728 19.3049 14.1216 18.8998 13.6109 18.3891C13.1002 17.8784 12.6951 17.272 12.4187 16.6048C12.1423 15.9375 12 15.2223 12 14.5C12 13.0413 12.5795 11.6424 13.6109 10.6109C14.6424 9.57946 16.0413 9 17.5 9C18.9587 9 20.3576 9.57946 21.3891 10.6109C22.4205 11.6424 23 13.0413 23 14.5Z" stroke="#FFFFFF" stroke-width="1.4" stroke-linecap="round" stroke-linejoin="round"/>
</svg>
