<svg width="24" height="24" viewBox="0 0 24 24" fill="none" xmlns="http://www.w3.org/2000/svg">
<path fill-rule="evenodd" clip-rule="evenodd" d="M17.75 4C18.4404 4 19 4.55964 19 5.25V17.75C19 18.4404 18.4404 19 17.75 19H5.25C4.55964 19 4 18.4404 4 17.75V5.25C4 4.55964 4.55964 4 5.25 4H17.75ZM11.5 5.50024C8.18629 5.50024 5.50025 8.1863 5.50024 11.5C5.50024 14.8137 8.18629 17.4998 11.5 17.4998C14.8137 17.4997 17.4998 14.8137 17.4998 11.5C17.4998 8.18631 14.8137 5.50026 11.5 5.50024Z" fill="#507642"/>
<path fill-rule="evenodd" clip-rule="evenodd" d="M11.9761 13.2925C11.9671 13.399 11.9549 13.5055 11.9378 13.612C11.8214 14.3495 11.4666 14.787 11.2803 15.4286C11.0573 16.2054 11.8157 16.5397 12.4627 16.4963C12.792 16.4667 13.1144 16.3837 13.4173 16.2505C13.6866 16.1351 13.9412 15.9877 14.1757 15.8113C15.8122 14.5986 15.4778 12.9516 13.6785 12.0126C13.5724 11.958 13.4589 11.9194 13.3416 11.8979C13.2701 12.2417 13.1004 12.5569 12.8533 12.8049C12.6127 13.0479 12.3085 13.217 11.9761 13.2925ZM11.5781 10.1231C11.8533 10.1231 12.1224 10.2053 12.3512 10.3592C12.5801 10.5132 12.7584 10.732 12.8638 10.988C12.9691 11.2441 12.9966 11.5258 12.943 11.7976C12.8893 12.0694 12.7567 12.319 12.5621 12.515C12.3675 12.711 12.1195 12.8444 11.8496 12.8985C11.5797 12.9525 11.2999 12.9248 11.0456 12.8187C10.7913 12.7127 10.574 12.5331 10.4211 12.3027C10.2682 12.0723 10.1865 11.8014 10.1865 11.5242C10.1865 11.1526 10.3332 10.7962 10.5941 10.5335C10.8551 10.2707 11.2091 10.1231 11.5781 10.1231ZM13.3408 11.1563C13.4433 11.1604 13.5467 11.1678 13.6492 11.1801C14.3865 11.262 14.8357 11.6029 15.4802 11.7619C16.2615 11.9544 16.5601 11.1744 16.4901 10.5254C16.4456 10.1957 16.3481 9.87549 16.2012 9.57738C16.0748 9.31154 15.9175 9.06178 15.7325 8.83338C14.4565 7.23722 12.8379 7.64691 11.985 9.50118C11.9492 9.57823 11.9219 9.65901 11.9036 9.74208C12.2615 9.80848 12.5908 9.98312 12.8476 10.2427C13.0952 10.4923 13.265 10.8093 13.3359 11.1547L13.3408 11.1563ZM11.1517 9.76338C11.1517 9.63228 11.1623 9.50036 11.1769 9.36926C11.2583 8.62607 11.5936 8.17295 11.7466 7.524C11.9411 6.73657 11.1647 6.43832 10.521 6.51042C10.1935 6.55579 9.87545 6.65459 9.57946 6.80294C9.31563 6.9303 9.06807 7.08932 8.84218 7.27655C7.26262 8.56462 7.67114 10.1936 9.51111 11.0482C9.60847 11.093 9.71139 11.1244 9.81709 11.1416C9.88855 10.8088 10.0516 10.5031 10.2877 10.2594C10.5237 10.0156 10.8231 9.84372 11.1517 9.76338ZM9.80895 11.8602C9.65355 11.8622 9.49815 11.8557 9.34347 11.8405C8.60455 11.7684 8.14964 11.4374 7.50268 11.2891C6.7182 11.1088 6.43256 11.8946 6.51312 12.5419C6.56312 12.8708 6.66591 13.1894 6.81748 13.485C6.94794 13.7493 7.10941 13.9969 7.29842 14.2225C8.60048 15.7932 10.2118 15.359 11.0345 13.4924C11.0647 13.422 11.0887 13.3491 11.1061 13.2744C10.7799 13.1849 10.4853 13.0048 10.256 12.7548C10.0266 12.5047 9.87169 12.1947 9.80895 11.8602Z" fill="#507642"/>
</svg>
