<svg width="32" height="32" viewBox="0 0 32 32" fill="none" xmlns="http://www.w3.org/2000/svg">
<path d="M14.5841 3.99505C15.4665 3.28794 16.7634 3.33783 17.586 4.14739L29.5265 15.9023L29.5782 15.9589C29.8205 16.2515 29.8064 16.6862 29.5343 16.9628C29.2619 17.2392 28.8277 17.26 28.5313 17.0224L28.4737 16.9706L26.7501 15.2734V26.7734C26.75 28.0136 25.731 28.9998 24.5001 28.9999H7.5001C6.26905 28.9999 5.25016 28.0137 5.2501 26.7734V15.2734L3.52647 16.9706C3.23139 17.2612 2.75655 17.2577 2.46592 16.9628C2.17538 16.6677 2.17877 16.1929 2.47373 15.9023L14.4122 4.14739H14.4132L14.5841 3.99505ZM16.5343 5.21673C16.2414 4.92843 15.7593 4.92648 15.464 5.21575L15.4649 5.21673L6.7501 13.7968V26.7734C6.75017 27.1632 7.07523 27.4999 7.5001 27.4999H24.5001C24.9248 27.4998 25.25 27.1631 25.2501 26.7734V13.7968L16.5343 5.21673Z" fill="#FFFFFF"/>
<path d="M16 12.7499C18.1726 12.7499 19.6399 13.5279 20.5527 14.5966C21.4422 15.6381 21.75 16.8909 21.75 17.7861C21.7498 19.0543 20.9717 20.3056 19.5938 20.3056C19.5308 20.3056 19.4699 20.3025 19.4297 20.3007C19.3845 20.2987 19.3557 20.2978 19.3281 20.2978H19.3164L19.3047 20.2968C19.0486 20.2889 18.7744 20.2654 18.4961 20.2363C18.5031 20.2672 18.5102 20.2988 18.5176 20.331L18.6504 20.8935L18.6514 20.8974L18.7188 21.2265C18.8485 21.9927 18.7794 22.7464 18.3281 23.331L18.3271 23.3329C17.7995 24.0127 16.9272 24.2499 16 24.2499H15.9766C15.0494 24.2499 14.177 24.0127 13.6494 23.3329V23.332C13.1236 22.6621 13.1085 21.7707 13.3252 20.8954L13.4775 20.2285C13.2146 20.2551 12.9565 20.2778 12.7139 20.289L12.7129 20.287C12.5935 20.2957 12.4814 20.2978 12.4062 20.2978C11.0282 20.2978 10.25 19.0457 10.25 17.7773C10.2501 16.8854 10.5579 15.6347 11.4473 14.5947C12.36 13.5272 13.8274 12.7499 16 12.7499Z" stroke="#FFFFFF" stroke-width="1.5"/>
</svg>
