<svg width="24" height="24" viewBox="0 0 24 24" fill="none" xmlns="http://www.w3.org/2000/svg">
<path d="M12 5.75C14.5679 5.75 16.2856 6.66739 17.3496 7.91309C18.3901 9.1314 18.7499 10.5982 18.75 11.6426C18.75 13.1157 17.8531 14.5166 16.3125 14.5166C16.241 14.5166 16.1721 14.513 16.123 14.5107C16.069 14.5083 16.031 14.5068 15.9941 14.5068H15.9707C15.6047 14.4956 15.2065 14.4577 14.8047 14.4121C14.8267 14.5124 14.8493 14.6189 14.875 14.7314L15.0352 15.4082L15.0361 15.4121C15.2826 16.4455 15.2532 17.4569 14.6748 18.2061L14.6738 18.207C14.0821 18.9694 13.0928 19.25 12 19.25H11.9717C10.879 19.25 9.8895 18.9693 9.29785 18.207V18.2061C8.70723 17.454 8.68067 16.4389 8.9375 15.4053C9.03095 15.0181 9.10515 14.6865 9.16699 14.4043C8.78145 14.4466 8.40161 14.4808 8.0498 14.4971L8.04883 14.4961C7.9106 14.5063 7.77945 14.5068 7.6875 14.5068C6.14707 14.5068 5.25018 13.1068 5.25 11.6338C5.25 10.5935 5.61069 9.12814 6.65137 7.91113C7.71533 6.66707 9.43227 5.75 12 5.75Z" stroke="#273043" stroke-width="1.5"/>
</svg>
