<svg width="24" height="24" viewBox="0 0 24 24" fill="none" xmlns="http://www.w3.org/2000/svg">
<path d="M13.375 13.375L10.875 15.875L13.375 18.375" stroke="#507642" stroke-width="1.5"/>
<path d="M15.2889 9.3125C15.6728 9.97758 15.875 10.732 15.875 11.5C15.875 12.268 15.6728 13.0224 15.2889 13.6875C14.9049 14.3526 14.3526 14.9049 13.6875 15.2889C13.0224 15.6728 12.268 15.875 11.5 15.875" stroke="#507642" stroke-width="1.5" stroke-linecap="round"/>
<path d="M9.625 9.625L12.125 7.125L9.625 4.625" stroke="#507642" stroke-width="1.5"/>
<path d="M7.71114 13.6875C7.32715 13.0224 7.125 12.268 7.125 11.5C7.125 10.732 7.32715 9.97758 7.71114 9.3125C8.09513 8.64742 8.64742 8.09513 9.3125 7.71114C9.97758 7.32715 10.732 7.125 11.5 7.125" stroke="#507642" stroke-width="1.5" stroke-linecap="round"/>
</svg>
