<svg width="25" height="25" viewBox="0 0 25 25" fill="none" xmlns="http://www.w3.org/2000/svg">
<path d="M4.5 14.5C4.5 12.312 5.36919 10.2135 6.91637 8.66637C8.46354 7.11919 10.562 6.25 12.75 6.25C14.938 6.25 17.0365 7.11919 18.5836 8.66637C20.1308 10.2135 21 12.312 21 14.5" stroke="#444444" stroke-width="1.5" stroke-linejoin="round"/>
<path d="M10.25 16C10.25 15.7045 10.3082 15.4119 10.4213 15.139C10.5343 14.866 10.7001 14.6179 10.909 14.409C11.1179 14.2001 11.366 14.0343 11.639 13.9213C11.9119 13.8082 12.2045 13.75 12.5 13.75C12.7955 13.75 13.0881 13.8082 13.361 13.9213C13.634 14.0343 13.8821 14.2001 14.091 14.409C14.2999 14.6179 14.4657 14.866 14.5787 15.139C14.6918 15.4119 14.75 15.7045 14.75 16" stroke="#444444" stroke-width="1.5" stroke-linejoin="round"/>
<path d="M13.5 14L15.5 11" stroke="#444444" stroke-width="1.5" stroke-linecap="round" stroke-linejoin="round"/>
<path d="M21 14.5V15.5C21 16.0523 20.5523 16.5 20 16.5H5.5C4.94772 16.5 4.5 16.0523 4.5 15.5V14.5" stroke="#444444" stroke-width="1.5" stroke-linecap="round" stroke-linejoin="round"/>
</svg>
