<svg width="24" height="24" viewBox="0 0 24 24" fill="none" xmlns="http://www.w3.org/2000/svg">
<path d="M8 6.5C9.9942 6.5 11.5026 7.10839 12.5684 8.04785V10.4834C11.9588 9.22341 10.6157 8 8 8C4.04726 8 3.0002 10.7931 3 12.2773L3.00684 12.4668C3.07064 13.3305 3.57107 13.9592 4.25684 14.0391L4.40625 14.0479C4.49218 14.0479 4.58595 14.048 4.67969 14.04C5.19531 14.0162 5.79688 13.9446 6.38281 13.8652C6.3984 13.8652 6.40632 13.8653 6.42188 13.8574C6.36718 14.1908 6.25774 14.7303 6.05469 15.5713C5.85938 16.357 5.92188 16.9683 6.24219 17.373C6.5625 17.7857 7.14845 18 7.97656 18H8C8.77619 18 9.33953 17.8117 9.6709 17.4482L9.73438 17.373C10.0079 17.0188 10.0899 16.5065 9.98047 15.8574L9.92188 15.5713C9.7188 14.7382 9.60938 14.1906 9.55469 13.8652C9.57031 13.8652 9.59375 13.873 9.60938 13.873C10.094 13.9378 10.5892 14.0009 11.0352 14.0312C10.8502 14.5601 10.75 15.1286 10.75 15.7188C10.75 16.4682 10.9132 17.1856 11.207 17.832C11.1287 17.9892 11.0355 18.1429 10.9219 18.29L10.9189 18.293C10.184 19.2396 9.02607 19.5 8 19.5H7.97656C6.95049 19.5 5.79255 19.2396 5.05762 18.293V18.292C4.40673 17.4608 4.36128 16.4423 4.52734 15.5459C4.47772 15.5466 4.43603 15.5479 4.40625 15.5479C2.46258 15.5479 1.5 13.7903 1.5 12.2773C1.5001 11.2356 1.85492 9.80376 2.87793 8.60742C3.94762 7.35662 5.63148 6.5 8 6.5Z" fill="#444444"/>
<path d="M15.6818 16.1875V14.3125M18.8636 11.5H20.6818M18.8636 9.625H20.6818M18.8636 7.75H20.6818M18.8636 5.875H22.5M17.0455 5.40625V12.7533C18.1204 13.2799 18.8636 14.4098 18.8636 15.7188C18.8636 17.5309 17.4391 19 15.6818 19C13.9245 19 12.5 17.5309 12.5 15.7188C12.5 14.4098 13.2432 13.2799 14.3182 12.7533V5.40625C14.3182 4.6296 14.9287 4 15.6818 4C16.4349 4 17.0455 4.6296 17.0455 5.40625Z" stroke="#444444" stroke-width="1.5" stroke-linecap="round" stroke-linejoin="round"/>
</svg>
