<svg width="25" height="24" viewBox="0 0 25 24" fill="none" xmlns="http://www.w3.org/2000/svg">
<g clip-path="url(#clip0_448_274)">
<path d="M8.75 6.5C10.6767 6.5 12.1512 7.06649 13.21 7.95215C12.959 8.40659 12.7232 8.86884 12.502 9.33789C11.731 8.57329 10.5386 8 8.75 8C4.79726 8 3.7502 10.7931 3.75 12.2773L3.75684 12.4668C3.82064 13.3305 4.32107 13.9592 5.00684 14.0391L5.15625 14.0479C5.24218 14.0479 5.33595 14.048 5.42969 14.04C5.94531 14.0162 6.54688 13.9446 7.13281 13.8652C7.1484 13.8652 7.15632 13.8653 7.17188 13.8574C7.11718 14.1908 7.00774 14.7303 6.80469 15.5713C6.60938 16.357 6.67188 16.9683 6.99219 17.373C7.3125 17.7857 7.89845 18 8.72656 18H8.75C9.52619 18 10.0895 17.8117 10.4209 17.4482L10.4844 17.373C10.7579 17.0188 10.8399 16.5065 10.7305 15.8574L10.6719 15.5713C10.4688 14.7382 10.3594 14.1906 10.3047 13.8652C10.3203 13.8652 10.3438 13.873 10.3594 13.873C10.5453 13.8979 10.7333 13.9194 10.9189 13.9424C10.7088 15.451 11.0478 16.9161 11.7832 18.1338C11.7481 18.1864 11.7114 18.2388 11.6719 18.29L11.6689 18.293C10.934 19.2396 9.77607 19.5 8.75 19.5H8.72656C7.70049 19.5 6.54255 19.2396 5.80762 18.293V18.292C5.15673 17.4608 5.11128 16.4423 5.27734 15.5459C5.22772 15.5466 5.18603 15.5479 5.15625 15.5479C3.21258 15.5479 2.25 13.7903 2.25 12.2773C2.2501 11.2356 2.60492 9.80376 3.62793 8.60742C4.69762 7.35662 6.38148 6.5 8.75 6.5Z" fill="#444444"/>
<path d="M17.75 17C17.3831 17 17.0265 16.879 16.7354 16.6556C16.4443 16.4323 16.2351 16.1191 16.1401 15.7647" stroke="#444444" stroke-width="1.5" stroke-linecap="round"/>
<path d="M16.4369 5.89892C16.8319 5.2274 17.0294 4.89164 17.2748 4.75913C17.5713 4.59895 17.9286 4.59895 18.2252 4.75913C18.4706 4.89164 18.6681 5.2274 19.0631 5.89892L20.4533 8.26237C21.425 9.91413 22.1831 11.6825 22.7095 13.5251V13.5251C23.5651 16.5194 21.3168 19.5 18.2026 19.5H17.2973C14.1832 19.5 11.9349 16.5194 12.7904 13.5251V13.5251C13.3169 11.6825 14.075 9.91413 15.0467 8.26237L16.4369 5.89892Z" stroke="#444444" stroke-width="1.5"/>
</g>
<defs>
<clipPath id="clip0_448_274">
<rect width="24" height="24" fill="white" transform="translate(0.75)"/>
</clipPath>
</defs>
</svg>
